<?xml version="1.0" encoding="UTF-8"?>
<!DOCTYPE svg PUBLIC "-//W3C//DTD SVG 1.1//EN" "http://www.w3.org/Graphics/SVG/1.1/DTD/svg11.dtd">
<svg xmlns="http://www.w3.org/2000/svg" version="1.1" width="192px" height="192px" style="shape-rendering:geometricPrecision; text-rendering:geometricPrecision; image-rendering:optimizeQuality; fill-rule:evenodd; clip-rule:evenodd" xmlns:xlink="http://www.w3.org/1999/xlink">
    <g><path style="opacity:1" fill="#f8f7f7" d="M 86.5,10.5 C 98.6028,8.89403 109.936,11.0607 120.5,17C 128.822,22.8181 134.155,30.6514 136.5,40.5C 162.379,43.8798 173.879,58.5465 171,84.5C 169.963,87.4055 168.796,90.2388 167.5,93C 176.227,106.986 174.893,119.986 163.5,132C 160.498,134.503 157.165,136.503 153.5,138C 142.224,139.243 130.891,139.91 119.5,140C 113.788,141.56 111.121,145.393 111.5,151.5C 111.349,162.569 115.349,171.736 123.5,179C 105.167,179.667 86.8333,179.667 68.5,179C 75.2655,174.313 79.0988,167.813 80,159.5C 80.6667,154.833 80.6667,150.167 80,145.5C 78.6196,142.117 76.1196,140.284 72.5,140C 61.4424,139.907 50.4424,139.24 39.5,138C 19.6991,127.931 14.6991,112.931 24.5,93C 17.4133,77.0751 19.7466,62.7417 31.5,50C 38.6671,44.7206 46.6671,41.3872 55.5,40C 60.8543,24.8096 71.1876,14.9763 86.5,10.5 Z"/></g>
    <g><path style="opacity:1" fill="#f26e08" d="M 99.5,51.5 C 97.5,51.5 95.5,51.5 93.5,51.5C 84.1585,46.2762 83.1585,39.7762 90.5,32C 103.82,28.9896 108.653,34.1562 105,47.5C 103.226,48.965 101.392,50.2983 99.5,51.5 Z"/></g>
    <g><path style="opacity:1" fill="#1f1f1f" d="M 93.5,51.5 C 95.5,51.5 97.5,51.5 99.5,51.5C 99.7488,64.5092 97.7488,77.1758 93.5,89.5C 94.7876,94.0739 96.6209,98.4072 99,102.5C 101.333,99.1667 103.667,95.8333 106,92.5C 112.064,86.9281 118.231,81.5948 124.5,76.5C 125.922,77.925 127.589,78.925 129.5,79.5C 123.909,84.9171 118.075,90.2505 112,95.5C 107.358,101.117 104.024,107.45 102,114.5C 101.333,117.833 101.333,121.167 102,124.5C 111.422,114.706 122.922,109.039 136.5,107.5C 136.971,109.579 137.637,111.579 138.5,113.5C 125.508,115.079 114.675,120.746 106,130.5C 101.032,142.12 100.032,154.12 103,166.5C 103.465,170.393 104.631,174.06 106.5,177.5C 99.5237,178.664 92.5237,178.831 85.5,178C 92.1888,162.77 93.0221,147.27 88,131.5C 84.7856,126.618 80.6189,122.785 75.5,120C 68.972,117.324 62.3054,115.157 55.5,113.5C 57.0808,111.858 57.7475,109.858 57.5,107.5C 70.6548,109.326 82.1548,114.659 92,123.5C 94.6838,108.376 90.1838,95.8757 78.5,86C 74.6006,82.5887 70.6006,79.4221 66.5,76.5C 67.8637,74.8089 69.197,73.1423 70.5,71.5C 75.8399,75.9343 81.3399,80.2676 87,84.5C 91.7934,74.0327 93.9601,63.0327 93.5,51.5 Z"/></g>
    <g><path style="opacity:1" fill="#f26e07" d="M 70.5,71.5 C 69.197,73.1423 67.8637,74.8089 66.5,76.5C 53.1374,79.6358 47.9707,74.6358 51,61.5C 58.0577,54.5066 64.3911,55.1733 70,63.5C 70.4974,66.146 70.6641,68.8127 70.5,71.5 Z"/></g>
    <g><path style="opacity:1" fill="#f36d05" d="M 129.5,79.5 C 127.589,78.925 125.922,77.925 124.5,76.5C 120.051,67.0641 122.885,61.0641 133,58.5C 142.236,60.9714 145.069,66.6381 141.5,75.5C 138.238,78.9246 134.238,80.2579 129.5,79.5 Z"/></g>
    <g><path style="opacity:1" fill="#f26e08" d="M 138.5,113.5 C 137.637,111.579 136.971,109.579 136.5,107.5C 137.246,100.953 140.913,97.2859 147.5,96.5C 159.914,100.737 161.58,107.57 152.5,117C 147.01,118.504 142.343,117.337 138.5,113.5 Z"/></g>
    <g><path style="opacity:1" fill="#f26e08" d="M 57.5,107.5 C 57.7475,109.858 57.0808,111.858 55.5,113.5C 51.506,117.621 46.8394,118.454 41.5,116C 34.2069,108.732 34.8736,102.398 43.5,97C 51.7871,95.7968 56.4538,99.2968 57.5,107.5 Z"/></g>
</svg>